REM DIRINDEX 1\2,1\3\7,1\3\8,1\4\9,1\4\10,1\4\11,1\5\12,1\5\13,1\5\14,1\6\15,1\6\16,1\6\17
REM DIRNAME "folder01","folder02","folder03","folder04","folder05","folder06","folder07","folder08","folder09","folder10","folder11","folder12","folder13","folder14","folder15","folder16","folder17"
TITLE ""
FILE "2Q_t_0601-0617.mp3" MP3
  TRACK 01 AUDIO
    TITLE "2:cjc174_2963"
    INDEX 01 00:00:00
  TRACK 02 AUDIO
    TITLE "0:"
    INDEX 01 00:01:41
  TRACK 03 AUDIO
    TITLE "2:cjc174_2964"
    INDEX 01 00:02:11
  TRACK 04 AUDIO
    TITLE "0:"
    INDEX 01 00:03:18
  TRACK 05 AUDIO
    TITLE "7:cjc174_2965"
    INDEX 01 00:03:63
  TRACK 06 AUDIO
    TITLE "0:"
    INDEX 01 00:04:61
  TRACK 07 AUDIO
    TITLE "8:cjc174_2966"
    INDEX 01 00:05:33
  TRACK 08 AUDIO
    TITLE "0:"
    INDEX 01 00:09:56
  TRACK 09 AUDIO
    TITLE "7:cjc174_2967"
    INDEX 01 00:10:26
  TRACK 10 AUDIO
    TITLE "0:"
    INDEX 01 00:11:30
  TRACK 11 AUDIO
    TITLE "8:cjc174_2968"
    INDEX 01 00:11:75
  TRACK 12 AUDIO
    TITLE "0:"
    INDEX 01 00:14:44
  TRACK 13 AUDIO
    TITLE "7:cjc174_2969"
    INDEX 01 00:15:14
  TRACK 14 AUDIO
    TITLE "0:"
    INDEX 01 00:16:27
  TRACK 15 AUDIO
    TITLE "8:cjc174_2970"
    INDEX 01 00:16:74
  TRACK 16 AUDIO
    TITLE "0:"
    INDEX 01 00:20:09
  TRACK 17 AUDIO
    TITLE "7:cjc174_2971"
    INDEX 01 00:20:54
  TRACK 18 AUDIO
    TITLE "0:"
    INDEX 01 00:21:52
  TRACK 19 AUDIO
    TITLE "8:cjc174_2972"
    INDEX 01 00:22:31
  TRACK 20 AUDIO
    TITLE "0:"
    INDEX 01 00:25:46
  TRACK 21 AUDIO
    TITLE "7:cjc174_2973"
    INDEX 01 00:26:14
  TRACK 22 AUDIO
    TITLE "0:"
    INDEX 01 00:27:13
  TRACK 23 AUDIO
    TITLE "8:cjc174_2974"
    INDEX 01 00:27:60
  TRACK 24 AUDIO
    TITLE "0:"
    INDEX 01 00:30:47
  TRACK 25 AUDIO
    TITLE "7:cjc174_2975"
    INDEX 01 00:31:19
  TRACK 26 AUDIO
    TITLE "0:"
    INDEX 01 00:32:34
  TRACK 27 AUDIO
    TITLE "8:cjc174_2976"
    INDEX 01 00:33:06
  TRACK 28 AUDIO
    TITLE "0:"
    INDEX 01 00:35:32
  TRACK 29 AUDIO
    TITLE "7:cjc174_2977"
    INDEX 01 00:36:02
  TRACK 30 AUDIO
    TITLE "0:"
    INDEX 01 00:37:13
  TRACK 31 AUDIO
    TITLE "8:cjc174_2978"
    INDEX 01 00:37:60
  TRACK 32 AUDIO
    TITLE "0:"
    INDEX 01 00:42:07
  TRACK 33 AUDIO
    TITLE "7:cjc174_2979"
    INDEX 01 00:42:52
  TRACK 34 AUDIO
    TITLE "0:"
    INDEX 01 00:43:63
  TRACK 35 AUDIO
    TITLE "8:cjc174_2980"
    INDEX 01 00:44:35
  TRACK 36 AUDIO
    TITLE "0:"
    INDEX 01 00:48:09
  TRACK 37 AUDIO
    TITLE "7:cjc174_2981"
    INDEX 01 00:48:52
  TRACK 38 AUDIO
    TITLE "0:"
    INDEX 01 00:49:70
  TRACK 39 AUDIO
    TITLE "8:cjc174_2982"
    INDEX 01 00:50:43
  TRACK 40 AUDIO
    TITLE "0:"
    INDEX 01 00:53:10
  TRACK 41 AUDIO
    TITLE "7:cjc174_2983"
    INDEX 01 00:53:57
  TRACK 42 AUDIO
    TITLE "0:"
    INDEX 01 00:54:55
  TRACK 43 AUDIO
    TITLE "8:cjc174_2984"
    INDEX 01 00:55:25
  TRACK 44 AUDIO
    TITLE "0:"
    INDEX 01 00:58:04
  TRACK 45 AUDIO
    TITLE "7:cjc174_2985"
    INDEX 01 00:58:49
  TRACK 46 AUDIO
    TITLE "0:"
    INDEX 01 00:59:56
  TRACK 47 AUDIO
    TITLE "8:cjc174_2986"
    INDEX 01 01:00:26
  TRACK 48 AUDIO
    TITLE "0:"
    INDEX 01 01:04:32
  TRACK 49 AUDIO
    TITLE "7:cjc174_2987"
    INDEX 01 01:05:02
  TRACK 50 AUDIO
    TITLE "0:"
    INDEX 01 01:06:09
  TRACK 51 AUDIO
    TITLE "8:cjc174_2988"
    INDEX 01 01:06:56
  TRACK 52 AUDIO
    TITLE "0:"
    INDEX 01 01:08:73
  TRACK 53 AUDIO
    TITLE "7:cjc174_2989"
    INDEX 01 01:09:41
  TRACK 54 AUDIO
    TITLE "0:"
    INDEX 01 01:10:60
  TRACK 55 AUDIO
    TITLE "8:cjc174_2990"
    INDEX 01 01:11:34
  TRACK 56 AUDIO
    TITLE "0:"
    INDEX 01 01:13:01
  TRACK 57 AUDIO
    TITLE "7:cjc174_2991"
    INDEX 01 01:13:45
  TRACK 58 AUDIO
    TITLE "0:"
    INDEX 01 01:14:69
  TRACK 59 AUDIO
    TITLE "8:cjc174_2992"
    INDEX 01 01:15:45
  TRACK 60 AUDIO
    TITLE "0:"
    INDEX 01 01:18:40
  TRACK 61 AUDIO
    TITLE "7:cjc174_2993"
    INDEX 01 01:19:08
  TRACK 62 AUDIO
    TITLE "0:"
    INDEX 01 01:20:07
  TRACK 63 AUDIO
    TITLE "8:cjc174_2994"
    INDEX 01 01:20:54
  TRACK 64 AUDIO
    TITLE "0:"
    INDEX 01 01:23:31
  TRACK 65 AUDIO
    TITLE "7:cjc174_2995"
    INDEX 01 01:23:74
  TRACK 66 AUDIO
    TITLE "0:"
    INDEX 01 01:25:52
  TRACK 67 AUDIO
    TITLE "8:cjc174_2996"
    INDEX 01 01:26:22
  TRACK 68 AUDIO
    TITLE "0:"
    INDEX 01 01:27:31
  TRACK 69 AUDIO
    TITLE "7:cjc174_2997"
    INDEX 01 01:28:03
  TRACK 70 AUDIO
    TITLE "0:"
    INDEX 01 01:29:14
  TRACK 71 AUDIO
    TITLE "8:cjc174_2998"
    INDEX 01 01:29:65
  TRACK 72 AUDIO
    TITLE "0:"
    INDEX 01 01:32:32
